<svg width="40" height="40" viewBox="0 0 40 40" fill="none" xmlns="http://www.w3.org/2000/svg">
<g clip-path="url(#clip0_2314_437)">
<path d="M26.2816 4.51106C25.0503 3.89992 23.7369 3.47057 22.3825 3.23642C21.8826 3.16643 21.3828 3.16643 20.8829 3.14145C19.0651 3.0033 17.2378 3.22236 15.5043 3.78626C14.7304 4.06196 13.9894 4.42238 13.2948 4.86096C13.0799 5.00591 12.8549 5.14088 12.63 5.27584L11.9752 5.72071C11.5252 5.99564 11.0904 6.30055 10.6005 6.54049C10.2956 6.68545 10.0657 6.36553 10.0307 5.86068C9.97682 5.24228 10.1981 4.63156 10.6355 4.19115C11.0798 3.78979 11.5508 3.41905 12.0452 3.08146C12.558 2.76458 13.0889 2.47752 13.6347 2.22171C14.7492 1.72817 15.9269 1.39172 17.1338 1.22199C18.583 0.948617 20.0532 0.803099 21.5278 0.787109C23.1449 0.860917 24.7429 1.16904 26.2715 1.70185C27.2029 2.03269 28.1056 2.43893 28.9708 2.91651C30.2558 3.65403 31.4603 4.52349 32.565 5.51078C33.4814 6.25615 34.3189 7.09364 35.0643 8.01008C35.2519 8.21516 35.4192 8.43778 35.5642 8.67489C35.6604 8.87251 35.7278 9.08293 35.7641 9.29971C35.7802 9.4687 35.7598 9.63917 35.7042 9.79957C35.6052 10.0504 35.4258 10.2613 35.1942 10.3994C35.0882 10.4769 34.9781 10.5486 34.8644 10.6143C34.4944 10.7793 34.0246 10.5294 33.4597 10.1994C33.3248 10.0445 33.1148 9.91954 32.9998 9.75958C32.8849 9.59962 32.7149 9.45466 32.5899 9.29971L32.1601 8.84483L31.7151 8.39496C31.0973 7.77285 30.4394 7.19177 29.7456 6.65545C28.6804 5.82718 27.5189 5.13066 26.2865 4.58104L26.2816 4.51106Z" fill="#0C0C0C" fill-opacity="0.752941"/>
<path d="M38.6912 10.299C38.5848 11.0073 38.2738 11.6693 37.7965 12.2034C37.5306 12.4854 37.2177 12.7188 36.8717 12.8933C36.5556 13.0475 36.2189 13.1552 35.872 13.2132C35.4495 13.2993 35.0178 13.3313 34.5873 13.3081C33.9241 13.2337 33.2707 13.0896 32.6378 12.8782C32.0229 12.6883 31.4281 12.4734 30.8483 12.2334C30.2684 11.9935 29.8084 11.8435 29.2986 11.6286C28.6084 11.4099 27.9751 11.0412 27.4441 10.5489C27.2792 10.3789 27.4991 10.144 27.824 9.97404C28.1479 9.77358 28.5382 9.71059 28.9087 9.7991C30.0934 10.269 31.3581 10.6139 32.6028 11.0438C33.3472 11.2498 34.1236 11.3159 34.8922 11.2387C35.2091 11.2333 35.5205 11.1546 35.802 11.0087C35.9101 10.9479 36.0066 10.8684 36.0869 10.7738C36.1764 10.659 36.2535 10.535 36.3168 10.4039C36.4984 9.96036 36.5836 9.48328 36.5668 9.00432C36.5557 8.17002 36.4398 7.34043 36.2218 6.53501C36.0769 5.8902 35.762 5.30536 35.602 4.66055C35.567 4.51559 35.522 4.37563 35.502 4.23067C35.417 3.67583 35.477 3.46588 35.682 3.27094C35.7244 3.22506 35.7695 3.18166 35.8169 3.14097C35.972 3.03601 36.2069 3.19096 36.5018 3.51587L37.1567 4.26066C37.3591 4.52266 37.5381 4.80199 37.6915 5.09543C38.0633 5.66513 38.3354 6.29392 38.4963 6.9549C38.7897 8.04564 38.8711 9.18253 38.7363 10.304L38.6912 10.299Z" fill="#0C0C0C" fill-opacity="0.752941"/>
<path d="M5.53795 21.7724C5.52036 23.1334 5.74201 24.4869 6.19278 25.7712C6.3892 26.2282 6.61116 26.6738 6.85761 27.1059C7.25582 27.9075 7.74745 28.6591 8.32223 29.3453C8.61336 29.694 8.92202 30.0276 9.247 30.345C9.59191 30.65 9.92683 30.9698 10.3017 31.2398C10.9655 31.7356 11.6874 32.1484 12.4512 32.4694C12.6961 32.5694 12.9511 32.6843 13.176 32.7893C13.4009 32.8943 13.6758 32.9792 13.9208 33.0842C14.421 33.2841 14.9099 33.511 15.3854 33.764C15.6803 33.939 15.5404 34.3039 15.1405 34.6138C14.6548 35.0036 14.0233 35.1624 13.411 35.0487C12.8277 34.9064 12.2548 34.7243 11.6963 34.5038C11.1387 34.2616 10.5976 33.9827 10.0768 33.6691C9.02023 33.0335 8.06486 32.2434 7.24252 31.3248C6.19645 30.2408 5.27434 29.0438 4.49321 27.7557C3.73074 26.286 3.23166 24.6941 3.01858 23.052C2.90128 22.0568 2.87618 21.0528 2.94361 20.0529C3.06117 18.5558 3.34793 17.0768 3.79839 15.6441C4.08801 14.5037 4.47431 13.39 4.95309 12.315C5.06039 12.0672 5.18396 11.8268 5.323 11.5952C5.45384 11.4242 5.6068 11.2712 5.77788 11.1404C5.9177 11.0515 6.07418 10.9919 6.23776 10.9654C6.51906 10.9244 6.80596 10.979 7.05256 11.1204C7.17367 11.1712 7.29067 11.2315 7.40247 11.3003C7.73239 11.5354 7.75238 12.0702 7.7024 12.75L7.60742 13.0748C7.58847 13.1839 7.55484 13.2898 7.50744 13.3897C7.41747 13.5797 7.34748 13.7847 7.2625 13.9847C7.10254 14.3845 6.95258 14.7894 6.80262 15.2042C6.49512 16.0395 6.23807 16.8924 6.03282 17.7586C5.71168 19.0663 5.56876 20.4114 5.60793 21.7574L5.53795 21.7724Z" fill="#0C0C0C" fill-opacity="0.752941"/>
<path d="M5.78441 8.19003C6.50815 7.89929 7.30343 7.83651 8.06383 8.01008C8.8368 8.22945 9.50874 8.71218 9.96335 9.3747C10.2337 9.74194 10.4633 10.1375 10.6482 10.5544C10.9012 11.2374 11.0854 11.9441 11.198 12.6638C11.318 13.3536 11.408 14.0384 11.4579 14.7231C11.508 15.328 11.5779 15.9329 11.6079 16.5377C11.7144 17.3451 11.6039 18.1664 11.288 18.917C11.163 19.157 10.8831 18.992 10.6282 18.7171C10.3389 18.4556 10.1483 18.1026 10.0883 17.7173C10.0054 16.314 9.83847 14.9169 9.58844 13.5335C9.42313 12.6959 9.10454 11.8961 8.64869 11.1742C8.48855 10.8521 8.2579 10.5702 7.97386 10.3494C7.72258 10.1863 7.4204 10.1206 7.12407 10.1645C6.59974 10.2376 6.09703 10.4216 5.64945 10.7043C4.86252 11.1785 4.13432 11.7439 3.47999 12.3889C2.94014 12.8888 2.54523 13.4885 2.00537 13.9884C1.88541 14.0984 1.77543 14.2133 1.64547 14.3133C1.14559 14.6932 0.920649 14.7482 0.645718 14.6582C0.583467 14.6435 0.523096 14.6216 0.465765 14.5932C0.305805 14.5032 0.355793 14.2184 0.52575 13.7835L0.91565 12.7838C1.05954 12.4589 1.2266 12.1449 1.41552 11.844C1.77543 11.204 2.22861 10.6211 2.76018 10.1145C3.62875 9.26959 4.64544 8.59182 5.75942 8.11504L5.78441 8.19003Z" fill="#0C0C0C" fill-opacity="0.752941"/>
<path d="M30.9774 31.1894C32.2393 30.4808 33.3567 29.5415 34.2715 28.4202C34.5851 27.9877 34.8754 27.5388 35.1413 27.0755C36.1816 25.4278 36.8456 23.5708 37.0858 21.6371C37.1383 21.1992 37.1634 20.7585 37.1608 20.3175C37.1608 19.8776 37.1157 19.4377 37.0758 19.0028C36.9458 17.8781 36.7209 16.7785 36.6509 15.6138C36.6509 15.2488 37.0308 15.1839 37.5057 15.3839C37.7808 15.5039 38.0315 15.6733 38.2455 15.8836C38.5029 16.1156 38.6899 16.4153 38.7854 16.7484C38.8704 17.0584 38.9603 17.3632 39.0352 17.6732C39.1103 17.9831 39.1653 18.303 39.2103 18.6229C39.2552 18.9428 39.2652 19.2628 39.2852 19.5827C39.3027 19.9056 39.3027 20.2294 39.2852 20.5524C39.2888 21.8552 39.088 23.1506 38.6904 24.3913C38.2613 25.9243 37.6662 27.406 36.9158 28.81C35.9956 30.3083 34.8098 31.6261 33.4167 32.6989C32.5659 33.3513 31.6435 33.9047 30.6674 34.3485C29.9343 34.6881 29.1755 34.9688 28.398 35.1882C27.6232 35.3989 26.8372 35.5658 26.0436 35.6881C24.8119 35.9133 23.5616 36.0204 22.3096 36.008C22.0288 36.0114 21.7482 35.9948 21.4698 35.958C21.2533 35.9049 21.0424 35.8313 20.8399 35.738C20.4367 35.4912 20.192 35.0512 20.195 34.5785C20.1853 34.4453 20.1853 34.3117 20.195 34.1786C20.2393 33.9629 20.379 33.7789 20.5749 33.6787C20.8446 33.5097 21.1377 33.3817 21.4448 33.2988C21.9183 33.2324 22.3963 33.2024 22.8744 33.2088C23.3392 33.2088 23.8041 33.1788 24.264 33.1388C25.1964 33.0799 26.1224 32.9461 27.0334 32.7389C27.7135 32.5751 28.3815 32.3646 29.0328 32.1091C29.689 31.8401 30.3212 31.5156 30.9224 31.1394L30.9774 31.1894Z" fill="#0C0C0C" fill-opacity="0.752941"/>
<path d="M19.0259 38.2572C18.5489 37.9698 18.1191 37.6107 17.7513 37.1926C17.3154 36.7124 17.0046 36.132 16.8465 35.5031C16.7234 35.0107 16.7234 34.4957 16.8465 34.0034C17.0675 33.3222 17.4479 32.7035 17.9563 32.199C18.3762 31.7566 18.8218 31.3393 19.2909 30.9493L20.4706 29.9495C20.9422 29.4737 21.5026 29.095 22.1202 28.8348C22.3251 28.7649 22.465 29.0499 22.5001 29.4098C22.5664 29.7799 22.4699 30.1607 22.2351 30.4544C21.3304 31.2992 20.4706 32.1789 19.6108 33.0138C19.3637 33.2554 19.1652 33.5421 19.0259 33.8585C18.9188 34.0965 18.8577 34.3526 18.846 34.6132C18.8354 34.8558 18.9058 35.095 19.0459 35.2931C19.2389 35.5597 19.4677 35.7985 19.7257 36.0028C20.1104 36.3178 20.5296 36.5877 20.9755 36.8076C21.6884 37.1646 22.431 37.459 23.1949 37.6874C23.7897 37.8973 24.4196 37.9324 25.0194 38.1423C25.1544 38.1922 25.2844 38.2322 25.4143 38.2922C25.9142 38.5272 26.0341 38.7021 26.0642 38.977C26.0642 39.042 26.0642 39.1069 26.0642 39.162C26.0642 39.3469 25.8043 39.4469 25.4044 39.5169L24.4895 39.6668C24.1827 39.7035 23.8735 39.7152 23.5647 39.7019C22.9362 39.7192 22.3088 39.6382 21.7052 39.4619C20.754 39.1838 19.838 38.7964 18.976 38.3072L19.0259 38.2572Z" fill="#0C0C0C" fill-opacity="0.752941"/>
</g>
<defs>
<clipPath id="clip0_2314_437">
<rect width="38.92" height="40" fill="white" transform="translate(0.368652)"/>
</clipPath>
</defs>
</svg>
