<svg width="27" height="40" viewBox="0 0 27 40" fill="none" xmlns="http://www.w3.org/2000/svg">
<g clip-path="url(#clip0_2314_538)">
<path d="M8.35719 17.1011C10.1304 17.1011 12.0418 16.8344 14.0669 16.7208C15.1095 16.6493 16.1558 16.6493 17.1984 16.7208C17.7401 16.7608 18.2793 16.83 18.8135 16.9282L19.2185 17.0023C19.3618 17.0418 19.505 17.0714 19.6482 17.1159C19.9313 17.1908 20.21 17.2814 20.483 17.3875C22.0897 17.9639 23.5065 18.972 24.5776 20.3011C25.0564 20.9313 25.4224 21.6397 25.6593 22.3949C25.9049 23.1783 25.9725 24.0067 25.8568 24.8196C25.7994 25.218 25.7034 25.61 25.5704 25.9899C25.4266 26.3452 25.2616 26.6915 25.0764 27.027C24.7039 27.6501 24.2487 28.2199 23.7231 28.7208C22.7281 29.6516 21.5867 30.4124 20.3447 30.9727C19.1602 31.5227 17.9244 31.9544 16.6551 32.2615C14.439 32.7894 12.1662 33.0415 9.88835 33.0122C7.01081 33.002 4.15616 32.501 1.44722 31.5307C0.632251 31.1455 0.790306 31.0369 1.58552 30.9183C2.83781 30.7672 4.10237 30.7457 5.35908 30.8541C6.05552 30.9134 6.75195 30.948 7.44344 30.9628C8.13493 30.9776 8.82148 31.0171 9.50803 31.0122C10.8693 31.0165 12.2287 30.9108 13.573 30.6961C14.901 30.4861 16.207 30.1555 17.475 29.7085C18.7169 29.2757 19.8986 28.6866 20.9917 27.9554C21.6022 27.535 22.1353 27.012 22.5673 26.4097C22.9702 25.8733 23.2226 25.2392 23.2983 24.5727C23.4119 23.343 22.6019 22.1035 21.4362 21.2196C20.7921 20.7252 20.0643 20.3505 19.2877 20.1134C19.1 20.0492 18.9024 20.0245 18.7098 19.9653C18.5172 19.906 18.285 19.8912 18.0726 19.8517C17.6338 19.7878 17.192 19.7466 16.7489 19.7282C14.8614 19.7048 12.9748 19.8171 11.1034 20.064C9.86499 20.1979 8.61981 20.2589 7.37429 20.2467C6.72483 20.2297 6.0768 20.177 5.43317 20.0887C4.71081 19.9759 4.01574 19.7297 3.3834 19.3628C2.29915 18.7747 1.52803 17.7401 1.27435 16.5332C1.07617 15.3702 1.34026 14.1758 2.01029 13.2048C2.29567 12.7788 2.61619 12.3774 2.9685 12.0048C3.30575 11.6485 3.66188 11.3105 4.03537 10.9924C4.40352 10.6797 4.78765 10.3863 5.18621 10.1134C5.38378 9.97513 5.58135 9.83192 5.78385 9.70352L6.39632 9.33809C8.93686 7.81024 11.7908 6.87824 14.7436 6.61216C15.4002 6.55024 16.0601 6.53044 16.7193 6.55291C17.2422 6.59518 17.7619 6.67108 18.2751 6.78007C18.6153 6.87236 18.946 6.99636 19.263 7.15044C19.7173 7.35172 20.0542 7.75039 20.1767 8.23192C20.2426 8.4291 20.2873 8.63271 20.3101 8.83933C20.3101 9.15538 20.0384 9.36278 19.6038 9.46155C19.3469 9.51266 19.0853 9.53582 18.8234 9.53068C18.4848 9.55725 18.1445 9.55725 17.8059 9.53068C16.6782 9.48797 15.5489 9.5491 14.4324 9.7134C13.3061 9.89987 12.1974 10.1807 11.1182 10.5529C10.0477 10.9479 9.01737 11.444 8.04108 12.0344C7.0886 12.5836 6.22024 13.2672 5.46281 14.064C5.32451 14.1974 5.22572 14.3554 5.0973 14.4986L4.91949 14.7159L4.79601 14.8936C4.65583 15.0815 4.54891 15.2919 4.4799 15.5159C4.43031 15.6483 4.41667 15.7914 4.44039 15.9307C4.45557 16.0587 4.50891 16.1791 4.5935 16.2764C4.72489 16.4299 4.88409 16.5573 5.06273 16.6517C5.30842 16.7761 5.57153 16.8627 5.84312 16.9085C6.0324 16.9449 6.22375 16.9696 6.41608 16.9825C6.61859 17.0122 6.83097 17.022 7.04336 17.0319C7.46813 17.0615 7.90772 17.0319 8.35225 17.0319L8.35719 17.1011Z" fill="white"/>
<path d="M9.53757 24.8742C9.29061 22.8693 8.98932 20.8644 8.67321 18.8644C8.5596 18.1335 8.36697 17.4175 8.24843 16.6866C7.85823 14.1088 7.42358 11.531 6.89015 8.97301C6.64319 7.84708 6.39623 6.71128 6.05048 5.61498C5.85291 4.90388 5.61583 4.20759 5.40838 3.50142C5.20094 2.79524 5.01325 2.09401 4.88483 1.36314C4.8058 0.903885 5.22563 0.80512 5.77389 1.0224C6.49017 1.31623 7.06524 1.87529 7.37913 2.5829C7.97184 4.015 8.49539 5.45696 8.93992 6.92362C9.3558 8.40431 9.66613 9.91261 9.86849 11.4372C10.0041 12.362 10.1904 13.2786 10.4266 14.1829C10.639 15.1014 10.8761 16.0199 11.0687 16.9384C11.2614 17.9261 11.4639 18.9681 11.6318 19.9854L12.1257 23.0471L12.6641 26.8249C12.8024 27.7779 12.9308 28.736 13.0395 29.694C13.1481 30.652 13.2815 31.6051 13.405 32.5582C13.5136 33.294 13.6569 34.0397 13.7804 34.7557C13.9283 35.4871 14.0387 36.2255 14.1113 36.9681C14.1113 37.2989 14.1706 37.6199 14.1755 37.9557C14.1917 38.4123 14.1039 38.8665 13.9187 39.2841C13.7803 39.5482 13.5448 39.7483 13.2617 39.8421C13.1306 39.9015 12.9952 39.9511 12.8567 39.9903C12.4171 40.0792 12.0319 39.5705 11.775 38.736C10.9403 36.2668 10.7131 33.615 10.3278 30.9236C10.0512 28.9483 9.80429 26.9039 9.4783 24.8891L9.53757 24.8742Z" fill="white"/>
<path d="M16.9266 14.6667C16.9693 16.5926 17.0599 18.5201 17.1982 20.4494C17.2427 21.1506 17.3908 21.842 17.4402 22.5432C17.5242 23.7827 17.6576 25.0123 17.7563 26.2617C17.8551 27.5111 17.9687 28.7309 18.1416 29.9753C18.2937 31.0667 18.5015 32.1495 18.7639 33.2198C18.9171 33.9012 19.1344 34.5679 19.2974 35.2494C19.4558 35.935 19.5746 36.6291 19.653 37.3284C19.6925 37.7679 19.2974 37.8222 18.7788 37.6049C18.1002 37.2915 17.5605 36.7396 17.2624 36.0543C16.3472 33.2461 15.7621 30.341 15.5189 27.3975C15.43 26.5185 15.3411 25.6296 15.2028 24.7358C15.0645 23.842 14.941 22.9531 14.8422 22.0642C14.6397 20.0889 14.5063 18.1136 14.3977 16.1383C14.3532 15.5309 14.3433 14.9185 14.3186 14.3111C14.2939 13.7037 14.2495 13.1062 14.2495 12.4988C14.2149 10.6568 14.2495 8.80494 14.2495 6.9679C14.2495 6.25679 14.2495 5.55062 14.2495 4.83951C14.2495 4.1284 14.2495 3.42716 14.2989 2.70617C14.2989 2.39506 14.3236 2.08395 14.3582 1.7679C14.536 0.587654 14.778 0.22716 15.2966 0.0888889C15.4146 0.0511299 15.5351 0.021432 15.6572 0C16.0424 0 16.2746 0.493827 16.2894 1.30864C16.3338 2.52346 16.4129 3.77778 16.5018 5.0321C16.5265 5.65926 16.6055 6.30123 16.6401 6.94321V7.93086L16.6895 8.91852C16.7487 10.8346 16.9068 12.7704 16.9759 14.7062L16.9266 14.6667Z" fill="white"/>
</g>
<defs>
<clipPath id="clip0_2314_538">
<rect width="25.19" height="40" fill="white" transform="translate(0.907471)"/>
</clipPath>
</defs>
</svg>
