<svg width="33" height="40" viewBox="0 0 33 40" fill="none" xmlns="http://www.w3.org/2000/svg">
<g clip-path="url(#clip0_2314_519)">
<path d="M2.91347 24.0065C3.83827 24.8988 4.76307 25.7643 5.68787 26.6387C6.02543 26.9555 6.3861 27.2499 6.72365 27.5712C7.9074 28.7088 9.08652 29.8509 10.2194 31.0377L11.7546 32.5947C12.44 33.2451 13.0115 33.9984 13.447 34.8253C13.5672 35.1064 13.447 35.102 13.2157 34.9547C12.8616 34.7357 12.5275 34.488 12.217 34.2141C12.0552 34.0535 11.8748 33.8974 11.7083 33.7413L11.4448 33.5137L11.1858 33.2996L10.1778 32.3225C9.5073 31.6712 8.81836 31.0243 8.16169 30.3372C7.38028 29.5163 6.46009 28.7579 5.60002 27.9727L2.77013 25.3583C2.19213 24.8141 1.61875 24.2742 1.05462 23.7032C0.948271 23.5961 0.837293 23.489 0.735567 23.373C0.633839 23.2571 0.629215 23.2615 0.57835 23.1991C0.527486 23.1366 0.471998 23.0831 0.402638 22.9849C0.260542 22.8255 0.187664 22.6193 0.199182 22.4094C0.216501 22.3063 0.247586 22.2058 0.291662 22.1105C0.333278 22.0123 0.388766 21.9097 0.421134 21.8517C0.735567 21.3074 1.09161 20.8345 1.41992 20.3393C1.93781 19.5809 2.40945 18.8135 2.88111 18.0551C2.98746 17.8855 3.07531 17.716 3.19091 17.5554C3.33435 17.3415 3.4968 17.1399 3.67644 16.9531C3.78719 16.8631 3.91887 16.8004 4.06023 16.7702C4.11462 16.7518 4.17023 16.7369 4.22669 16.7256C4.3053 16.7256 4.34692 16.7925 4.35154 16.9576C4.35439 17.1833 4.30709 17.4069 4.21282 17.6134C3.57009 19.1659 2.43258 20.491 1.61413 21.9186C1.54477 22.048 1.47078 22.1774 1.41067 22.2979L1.36905 22.3871L1.46154 22.4986L1.60951 22.6637C2.01641 23.1098 2.48344 23.5559 2.94121 24.0021L2.91347 24.0065Z" fill="white"/>
<path d="M17.2283 26.1603C17.2283 26.1603 18.2964 26.0934 18.4629 25.509C18.6293 24.9245 18.4629 27.2579 18.4629 27.2579L17.2283 26.1603Z" fill="white"/>
<path d="M18.7969 21.3248L15.9763 21.4496L14.9544 21.521L13.1417 21.6147C12.536 21.6147 11.9303 21.6549 11.3245 21.6906C10.7881 21.7262 10.2517 21.7709 9.72456 21.8155L7.67615 21.9895C7.46346 21.9895 7.4912 21.9895 7.67615 21.9627C7.8611 21.936 8.18014 21.8512 8.56858 21.7887C9.95578 21.5612 11.343 21.3426 12.7302 21.1954L15.3011 20.9322L18.1357 20.6957L19.8789 20.5708C20.7621 20.5038 21.6452 20.4503 22.5192 20.3611C23.1989 20.2986 23.8555 20.1826 24.526 20.0934C24.674 20.0934 24.8174 20.0488 24.9885 20.0354C25.5387 19.9818 25.719 20.0354 25.8577 20.2183C25.8919 20.2598 25.9213 20.3046 25.9456 20.3522C26.015 20.5083 25.8023 20.6555 25.4 20.7403C24.1708 20.9774 22.925 21.1266 21.673 21.1864L18.7969 21.3381V21.3248Z" fill="white"/>
<path d="M10.3446 19.8133L9.74806 19.0861C9.67412 18.9969 9.59084 18.9166 9.5215 18.8274C9.28568 18.4973 9.05912 18.1627 8.83257 17.8236L8.52734 17.3775C8.39012 17.1999 8.28244 17.0027 8.2083 16.793C8.1667 16.6547 8.44413 16.7439 8.59674 16.9269C8.85564 17.2793 9.16547 17.6095 9.43829 17.9753C9.61865 18.1853 9.81 18.3864 10.0117 18.5775L10.6406 19.2646L11.0336 19.684C11.237 19.8937 11.4358 20.1078 11.6532 20.2997C11.8312 20.4395 12.0164 20.5705 12.208 20.6923C12.2514 20.7164 12.2931 20.7433 12.3329 20.7725C12.4763 20.8885 12.4855 20.9599 12.3791 21.1205C12.3572 21.1593 12.3325 21.1966 12.3052 21.2321C12.2251 21.3452 12.0695 21.3818 11.9445 21.3169C11.5754 21.1104 11.2443 20.8466 10.9642 20.5361C10.7469 20.3086 10.5388 20.09 10.3261 19.8357L10.3446 19.8133Z" fill="white"/>
<path d="M4.27107 24.0332C5.38545 25.269 6.54145 26.4691 7.69743 27.6692C8.12747 28.1153 8.62226 28.5034 9.02916 28.9496C10.532 30.52 12.0024 32.1261 13.4636 33.7545C14.0971 34.4862 14.7675 35.2 15.4149 35.9272L16.0438 36.6366C16.2288 36.8998 16.4091 37.154 16.5709 37.4396C16.9428 38.0238 17.175 38.6807 17.2507 39.3624C17.2507 39.9022 16.9408 39.7104 16.5709 39.5052C16.0491 39.2873 15.5543 39.0134 15.0958 38.6888C14.8832 38.4969 14.6566 38.3096 14.4208 38.1222C14.2054 37.9188 14.0017 37.7044 13.8104 37.4798L12.5711 36.1413L11.9469 35.4721L11.3504 34.7628C10.9528 34.2854 10.5597 33.8036 10.1713 33.3128C9.15658 32.1596 8.076 31.0618 6.93448 30.0248C5.7415 28.8202 4.54851 27.6022 3.37401 26.3576C2.64341 25.6036 1.92669 24.8228 1.22385 23.9752L1.02963 23.7164C0.951027 23.6094 0.872419 23.48 0.793813 23.3595C0.651197 23.1236 0.55847 22.8628 0.520996 22.5922C0.546585 22.3127 0.611935 22.038 0.715205 21.7757C0.844676 21.4991 0.923284 21.3296 1.02501 21.1466C1.40881 20.4239 1.81571 19.7502 2.19026 19.0676C2.48158 18.5323 2.74514 17.997 2.99484 17.4571C3.24453 16.9173 3.45724 16.3641 3.74855 15.86C3.87803 15.6324 3.97051 15.4138 4.09997 15.1863C4.24946 14.8884 4.43916 14.6108 4.66411 14.3609C4.83011 14.2276 5.02666 14.1342 5.23748 14.0888C5.33459 14.0888 5.43632 14.0263 5.51955 14.013C5.60278 13.9996 5.76 14.0932 5.83861 14.3163C5.93735 14.6258 5.95168 14.9546 5.88022 15.271C5.76925 15.8376 5.63052 16.3998 5.47793 16.9485C5.40437 17.2213 5.30532 17.4871 5.18199 17.7426C5.07102 18.0014 4.95079 18.2557 4.83057 18.51C4.34505 19.5272 3.80404 20.5221 3.33702 21.4902L3.07345 22.0032C3.03123 22.0843 2.99417 22.1677 2.96247 22.2531L2.92085 22.3512C2.9137 22.3472 2.90489 22.3472 2.89774 22.3512C2.85149 22.2977 3.01334 22.5029 3.11044 22.6278L3.48036 23.074C3.74393 23.3729 4.02137 23.6718 4.30344 23.9662L4.27107 24.0332Z" fill="white"/>
<path d="M27.7296 11.8842C28.2076 13.0441 28.7765 14.1671 29.4312 15.2436C30.0924 16.3411 30.8184 17.4029 31.6184 18.5049L32.4322 19.6336L32.5709 19.9861L32.6357 20.1645L32.6726 20.2493V20.2939H32.5987C32.6193 20.4135 32.6193 20.5356 32.5987 20.6553C32.5635 20.7807 32.5139 20.9019 32.4507 21.0167C32.3102 21.2597 32.1558 21.495 31.9883 21.7215L31.7756 22.0071L31.623 22.2033C29.4266 24.9069 27.1932 27.5079 25.0892 30.2338C24.1645 31.4429 23.2397 32.6787 22.412 33.9145C21.8663 34.7086 21.3531 35.525 20.8444 36.3325C20.3358 37.14 19.7439 37.9074 19.2815 38.7193C19.0041 39.219 18.8191 39.1075 18.7081 38.5186C18.617 37.5877 18.7549 36.6491 19.1104 35.7793C20.0487 33.9991 21.1004 32.2767 22.2594 30.622C23.4523 29.0025 24.7101 27.4365 26.0325 25.9063C26.8186 25.014 27.577 24.0281 28.3168 23.0465L30.1988 20.5214C30.1988 20.4857 30.2728 20.4411 30.245 20.401L30.171 20.2895C30.171 20.2448 30.1156 20.2002 30.0832 20.1511L29.9907 20.0173L29.8566 19.8344L29.3202 19.1027C28.9688 18.6209 28.5989 18.1301 28.2521 17.6081C27.5398 16.5845 26.8912 15.5208 26.31 14.4227C26.1019 14.0301 25.9077 13.6286 25.7228 13.2226C25.6256 13.0219 25.5424 12.8167 25.4546 12.6114L25.3575 12.3839L25.3066 12.2322C25.2785 12.1391 25.2398 12.0493 25.191 11.9645C25.0936 11.9451 24.9945 11.9346 24.8951 11.9333H24.7425H23.9333C23.2951 11.9021 22.6571 12.0537 22.0143 12.027L20.0907 12.0671L18.1671 12.1385C17.529 12.1385 16.8909 12.1787 16.2528 12.2099C14.2737 12.3125 12.3409 12.5891 10.3895 12.7988C9.9595 12.8434 9.54339 12.9193 9.10868 12.9505C8.67404 12.9817 8.37348 12.9907 8.09145 12.9862C7.84735 12.9515 7.61033 12.8807 7.38857 12.7765C7.06134 12.6192 6.7836 12.3805 6.584 12.085C6.49356 11.9724 6.41017 11.8547 6.33431 11.7325C6.24645 11.5407 6.36205 11.3578 6.63949 11.1258C7.02047 10.8019 7.46565 10.556 7.9481 10.4031C9.72108 10.0621 11.5115 9.81194 13.3119 9.65354C14.2367 9.56434 15.1615 9.49148 16.0863 9.43494C17.0112 9.38141 17.9359 9.30554 18.8607 9.31894H20.7103H21.6352C21.9441 9.31228 22.2532 9.32721 22.5599 9.36354C22.8744 9.41261 23.1888 9.47508 23.4848 9.51081H24.4373C24.5344 9.51081 24.9367 9.51081 25.2141 9.53308C25.3689 9.53494 25.5234 9.54688 25.6765 9.56881H25.8985C25.9659 9.58274 26.0301 9.60848 26.0881 9.64461C26.2102 9.69328 26.3192 9.76801 26.4071 9.86321L26.5505 9.98368C26.5967 9.92121 26.458 10.1175 26.6522 9.84988L26.6799 9.88554L26.74 9.96581L27.2256 10.5815L27.6094 11.4381L27.7805 11.8441L27.7296 11.8842Z" fill="white"/>
<path d="M18.5297 21.825C17.2534 21.8785 15.9725 21.9454 14.6963 22.0436C14.234 22.0748 13.7715 22.1774 13.3091 22.1997C11.6538 22.2622 9.99833 22.3336 8.34756 22.4629C7.97765 22.4897 7.61702 22.5432 7.24704 22.57L6.15118 22.6682C5.68878 22.7128 5.22638 22.7663 4.76398 22.7931H4.40793L4.04725 22.7529C3.80218 22.7262 3.56174 22.6994 3.31204 22.6503C3.15482 22.6236 3.06697 22.5656 3.09009 22.5432C3.1132 22.5209 3.18719 22.5031 3.30279 22.4317C3.46257 22.3388 3.61694 22.2376 3.76519 22.1283L4.075 21.9142C4.13049 21.8696 4.1906 21.8428 4.25071 21.7937L4.43567 21.7357C5.36047 21.477 6.28527 21.2048 7.21011 20.9862C8.13487 20.8524 9.11057 20.7498 10.0816 20.7007C11.2376 20.6516 12.3936 20.3706 13.5912 20.2546C14.886 20.1296 16.1853 20.0315 17.4846 19.9467L19.8937 19.7995C21.1052 19.7236 22.3306 19.6969 23.5374 19.6166C23.9998 19.5854 24.4623 19.5318 24.9247 19.4783L25.6275 19.398C25.7431 19.398 25.8633 19.3668 25.9789 19.3623H26.335C26.5477 19.3623 26.7511 19.3623 26.9639 19.3623C27.7453 19.4515 27.9904 19.6255 28.1013 20.0672C28.1336 20.1588 28.1583 20.2528 28.1753 20.3482C28.2123 20.6293 27.8702 20.9238 27.3338 21.0264C26.9315 21.12 26.5291 21.2138 26.1176 21.3164C25.7118 21.393 25.3008 21.4407 24.8876 21.4591C24.06 21.5216 23.2091 21.5751 22.3583 21.6197C21.0913 21.6956 19.8059 21.7491 18.525 21.8472L18.5297 21.825Z" fill="white"/>
<path d="M18.8462 16.8243C18.3838 17.2704 17.9213 17.7166 17.459 18.1627L16.0209 19.5145C15.6695 19.8446 15.3643 20.215 14.9944 20.5406L14.4811 20.9868C14.2212 21.2163 13.9411 21.4238 13.6442 21.6069C13.4942 21.6736 13.3397 21.7302 13.1818 21.7764C13.0271 21.7908 12.8711 21.7818 12.7193 21.7496C12.3946 21.656 12.099 21.4858 11.8593 21.2544C11.7252 21.1474 11.6004 21.0314 11.4755 20.9154L11.2212 20.6477C11.0686 20.4916 10.9252 20.3265 10.7866 20.1659L9.96807 19.1978C9.50569 18.6312 8.97857 18.0913 8.46531 17.5738C8.11448 17.2614 7.78978 16.9228 7.49422 16.5611C7.20759 16.1952 6.93476 15.8116 6.6388 15.4458C6.45846 15.2182 6.5417 15.1602 6.85615 15.178C7.35133 15.21 7.83592 15.331 8.28496 15.535L8.62713 15.7179C8.74328 15.771 8.85075 15.8401 8.94616 15.9231L9.50109 16.4138C9.86639 16.744 10.2224 17.0786 10.5646 17.4176C11.2489 18.0958 11.9148 18.7962 12.5159 19.4833C12.5697 19.5332 12.6136 19.5921 12.6454 19.6573C12.6734 19.6951 12.7043 19.7309 12.7379 19.7644C12.7715 19.8002 12.8147 19.8264 12.8627 19.8402C12.909 19.8402 12.946 19.8045 12.9876 19.7777C13.0252 19.749 13.0608 19.7176 13.0939 19.684L13.302 19.4699L13.9031 18.8453L16.6128 16.0302L17.4821 15.178L18.4393 14.2858C18.7385 13.9824 19.0792 13.7197 19.4519 13.505C19.6255 13.4274 19.8116 13.3791 20.0022 13.3623C20.1824 13.4275 20.3486 13.5243 20.4923 13.6478C20.8211 13.9247 21.1301 14.2228 21.4171 14.5401L22.0552 15.2048C22.7165 15.8785 23.4424 16.4629 24.1545 17.092C24.3117 17.2303 24.4782 17.3508 24.617 17.498C24.6863 17.5649 24.7464 17.6318 24.8019 17.6898C24.8574 17.7478 24.8805 17.8236 24.9129 17.8816C24.9675 17.9886 25.0049 18.1029 25.0239 18.2207C25.0376 18.3226 25.0281 18.4261 24.9961 18.5241C24.9496 18.6397 24.8907 18.7504 24.8204 18.8542C24.7556 18.9568 24.7094 19.0594 24.6493 19.1353C24.4875 19.3628 23.891 19.4476 23.3916 19.1353C23.1986 19.0356 23.0186 18.9144 22.8552 18.7739C22.6841 18.6446 22.5176 18.5062 22.3558 18.368C22.0275 18.0913 21.7131 17.8014 21.4032 17.5024C21.0935 17.2035 20.7882 16.8957 20.4785 16.6102L20.016 16.1417L19.8357 15.9499C19.8357 15.9499 19.8357 15.9499 19.8357 15.9231C19.8357 15.8964 19.8357 15.9231 19.8033 15.9231L19.7247 16.0079L19.5582 16.173L18.8878 16.86L18.8462 16.8243Z" fill="white"/>
<path d="M10.4731 25.7156C10.6766 25.5683 10.88 25.43 11.0696 25.2694C11.1389 25.2158 11.1759 25.1356 11.2499 25.0865C11.5042 24.9036 11.7771 24.7385 12.0175 24.5511C12.1182 24.464 12.2014 24.3596 12.2626 24.2433C12.3458 24.096 12.3735 23.9087 12.5955 23.8641C12.7342 23.8328 13.7284 24.7028 13.622 24.8857C13.4248 25.2019 13.1307 25.4513 12.7804 25.5996C12.5539 25.6932 12.4614 25.9029 12.3181 26.0457C12.1747 26.1884 11.9528 26.3624 11.7724 26.5186C11.5921 26.6747 11.5458 26.7104 11.4395 26.813C11.2778 26.9543 11.1235 27.1032 10.9771 27.2592C10.8754 27.3886 10.8384 27.567 10.7274 27.7053C10.7129 27.7382 10.6926 27.7684 10.6673 27.7946C10.5609 27.8882 10.4638 27.8704 10.2372 27.741L10.08 27.6518C9.93242 27.5698 9.82934 27.4296 9.798 27.2681C9.77013 27.0727 9.77013 26.8746 9.798 26.6792C9.84661 26.5244 9.91168 26.3749 9.99215 26.233C10.0893 26.001 10.3159 25.8717 10.4869 25.7022L10.4731 25.7156Z" fill="white"/>
<path d="M20.012 27.3391C19.9922 27.4649 19.9483 27.5859 19.8825 27.6961L19.7345 27.9949L19.4293 28.6106C19.3507 28.6865 19.3045 28.8159 19.212 28.8917C19.1943 28.8861 19.1772 28.8786 19.1612 28.8694C18.4074 28.4448 17.7063 27.9389 17.0711 27.3615L16.6503 26.9777L16.4376 26.7949L16.2712 26.5495C16.1278 26.3576 15.9336 26.2327 15.8642 26.139C15.7636 26.0306 15.688 25.9029 15.6423 25.7643C15.6146 25.6661 15.8088 25.4698 16.0631 25.3181C16.3174 25.1665 16.6596 25.0147 16.8214 25.0906L17.0248 25.1887H17.0526C17.0526 25.1887 17.0526 25.1887 17.0526 25.2289C17.0724 25.3554 17.1146 25.4776 17.1774 25.5903C17.2147 25.6734 17.2699 25.7479 17.3393 25.8089C17.3901 25.8535 17.4179 25.8446 17.4826 25.907C17.4975 25.9144 17.5115 25.9233 17.5243 25.9338C17.5612 25.9338 17.6168 26.0141 17.6537 26.0185C17.6793 26.0096 17.7028 25.9959 17.7231 25.9784C17.7663 25.9411 17.8009 25.8955 17.8248 25.8446C17.8654 25.7586 17.8904 25.6665 17.8988 25.5724C17.9437 25.368 17.9437 25.1567 17.8988 24.9523C17.8592 24.8121 17.7985 24.6783 17.7184 24.5553C17.6538 24.4214 17.5798 24.2875 17.5243 24.1448C17.4965 24.0823 17.4503 24.0199 17.4641 23.9529C17.4919 23.6897 17.6584 23.5603 18.1393 23.5068C18.2464 23.4913 18.3546 23.4823 18.4629 23.4801C18.7629 23.4643 19.0621 23.5227 19.3323 23.6496L19.5496 23.7834C19.6049 23.8283 19.6545 23.8791 19.6976 23.9351C19.7819 24.0406 19.8547 24.1543 19.9149 24.2742C19.957 24.395 19.9895 24.5188 20.012 24.6445V24.7381L20.0397 24.9255L20.0859 25.2958C20.1559 25.9842 20.1559 26.6775 20.0859 27.3659L20.012 27.3391Z" fill="white"/>
<path d="M9.33158 7.01353C9.47493 7.01353 9.36858 7.18753 9.12809 7.49539C9.00801 7.63313 8.86786 7.75339 8.71198 7.85233C8.60817 7.88379 8.50123 7.90473 8.39288 7.91473C8.14232 7.80633 7.89843 7.68419 7.66234 7.54893C7.50379 7.46433 7.36524 7.34886 7.25537 7.20986C7.02421 6.94219 6.793 6.68339 6.5618 6.41573C6.51328 6.35169 6.47869 6.27885 6.46007 6.20159C6.39473 5.93967 6.25548 5.70032 6.05778 5.51008C6.03003 5.47439 6.01154 5.42977 5.93756 5.42977C5.86357 5.42977 5.41505 4.80964 5.41042 4.70257C5.37452 4.43913 5.35292 4.17406 5.34569 3.90845C5.34569 3.87275 5.31332 3.84599 5.34569 3.78799C5.41237 3.71392 5.42692 3.60865 5.38268 3.52031C5.35594 3.41372 5.34351 3.30427 5.34569 3.19463C5.36435 3.12169 5.39562 3.05232 5.43817 2.98941C5.47053 2.93141 5.6555 2.88679 5.67861 2.89125C5.70173 2.89571 5.82196 2.84218 5.89594 2.81095L5.96993 2.78418C6.08645 2.81874 6.19944 2.86354 6.30748 2.91802C6.43036 2.96415 6.55075 3.01626 6.66815 3.07417C6.66815 3.07417 6.82074 3.20801 7.00107 3.33739C7.18143 3.46677 7.31091 3.63184 7.35251 3.65415C7.39411 3.67645 7.38951 3.74337 7.39411 3.79245C7.39871 3.84153 7.8889 4.23859 7.90277 4.23859C7.96291 4.35012 8.09232 4.4215 8.04151 4.60888C8.04151 4.64903 8.04151 4.66242 8.06925 4.68473C8.2082 4.86173 8.32321 5.05514 8.41142 5.26024C8.47282 5.35636 8.54243 5.44739 8.61951 5.53239C8.61951 5.53239 8.61951 5.577 8.61951 5.59931C8.61951 5.62161 8.61951 5.66177 8.64257 5.67961C8.78866 5.90604 8.95914 6.11691 9.15123 6.30866C9.2067 6.34435 9.25757 6.68339 9.32231 6.71913C9.38705 6.75479 9.27611 7.01353 9.33158 7.01353Z" fill="white"/>
<path d="M22.5939 5.6704C22.6356 5.8087 22.4182 5.79086 22.0483 5.6704C21.882 5.60246 21.7263 5.51235 21.5859 5.40272C21.5248 5.31927 21.4707 5.23125 21.4241 5.1395C21.4241 5.09488 21.4842 4.55506 21.4934 4.36322C21.5015 4.18711 21.5455 4.01427 21.6229 3.85462C21.7709 3.53341 21.9003 3.20326 22.0437 2.88205C22.0757 2.80713 22.1247 2.74007 22.187 2.68575C22.3961 2.49691 22.5439 2.25359 22.6125 1.98531C22.6125 1.94069 22.6587 1.90501 22.6125 1.83809C22.6469 1.53425 22.758 1.24319 22.9362 0.990427L23.5326 0.468444C23.5604 0.446137 23.5326 0.401523 23.639 0.405985C23.74 0.427156 23.8425 0.37679 23.8841 0.285527C23.9493 0.196505 24.0289 0.118175 24.1199 0.0535364C24.1989 0.0208099 24.2836 0.00265154 24.3696 0C24.4818 0.0202663 24.5869 0.0678727 24.6747 0.138303C24.7256 0.214146 24.8458 0.22753 24.943 0.267682L25.04 0.312296C25.1385 0.569318 25.2007 0.837907 25.225 1.11088C25.225 1.11088 25.1741 1.32949 25.1233 1.55702C25.0724 1.78455 24.9938 2.00315 24.9938 2.06115C24.9938 2.11915 24.9244 2.14146 24.8828 2.17715C24.8412 2.21284 24.6886 2.87312 24.6747 2.89543C24.5915 3.01589 24.5869 3.16757 24.388 3.23449C24.3464 3.23449 24.3418 3.27911 24.3326 3.30587C24.2275 3.52965 24.0955 3.74077 23.9395 3.93493C23.8761 4.0448 23.8189 4.15799 23.7684 4.27399C23.7684 4.2963 23.7268 4.30522 23.7084 4.32307C23.6898 4.34091 23.6528 4.35876 23.6436 4.38553C23.4876 4.64469 23.3516 4.91459 23.2367 5.19303C23.2367 5.26441 22.9038 5.47856 22.8853 5.56333C22.8668 5.64809 22.5755 5.63917 22.5939 5.6704Z" fill="white"/>
<path d="M17.8732 17.3188L16.8744 18.2825C16.7542 18.403 16.6525 18.5412 16.5323 18.6572C16.1022 19.0766 15.6629 19.4915 15.2468 19.9198C15.0619 20.1116 14.8908 20.3168 14.7243 20.5221C14.5249 20.8202 14.2576 21.0705 13.9428 21.2538C13.818 21.3162 13.7763 21.1779 13.744 21.0084C13.6775 20.8342 13.6775 20.6428 13.744 20.4686C13.914 20.1784 14.1172 19.9075 14.3497 19.661C14.5857 19.3974 14.8357 19.1457 15.0988 18.9071C15.3928 18.6004 15.6677 18.2771 15.9219 17.939C16.2271 17.582 16.5415 17.234 16.8467 16.8905L17.4524 16.266C17.7576 15.9492 18.0767 15.6414 18.3773 15.3157C18.6038 15.0614 18.7888 14.7758 19.0292 14.5037C19.0847 14.4457 19.1309 14.3788 19.1864 14.3252C19.2701 14.2492 19.3826 14.2098 19.4973 14.2166C19.6121 14.2234 19.7188 14.2756 19.7922 14.361L19.9032 14.468C19.9522 14.5344 19.9782 14.614 19.9772 14.6956C19.9848 14.7925 19.9706 14.8899 19.9356 14.981C19.888 15.1144 19.8159 15.2383 19.7228 15.3469C19.635 15.4495 19.5471 15.5744 19.45 15.6815C19.2604 15.8956 19.0523 16.1276 18.8396 16.3418L17.8825 17.3367L17.8732 17.3188Z" fill="white"/>
</g>
<defs>
<clipPath id="clip0_2314_519">
<rect width="32.67" height="40" fill="white" transform="translate(0.166748)"/>
</clipPath>
</defs>
</svg>
