<svg width="41" height="38" viewBox="0 0 41 38" fill="none" xmlns="http://www.w3.org/2000/svg">
<g clip-path="url(#clip0_2314_425)">
<path d="M3.15579 36.9506C15.268 33.3537 26.9821 27.7241 39.4657 25.5715C41.8493 25.1572 40.8432 21.4787 38.4649 21.8928C25.9813 24.0727 14.2511 29.6752 2.15496 33.2666C-0.174945 33.9532 0.820511 37.6373 3.15579 36.9506Z" fill="#0C0C0C" fill-opacity="0.752941"/>
<path d="M3.32249 9.57646C4.02825 10.9349 5.24424 11.9485 6.69626 12.3885C7.44901 12.6182 8.26554 12.4322 8.84861 11.898C9.42779 11.2004 9.6292 10.258 9.38669 9.38026C9.06784 7.99845 8.29581 6.76696 7.19669 5.88693C6.6645 5.35067 5.9555 5.03238 5.20578 4.99316C4.25428 5.05569 3.48826 5.80843 3.39782 6.7698C3.22859 7.49284 3.63958 8.22546 4.33946 8.44834C4.96902 8.62274 5.89452 8.23036 5.99138 7.49462C6.02241 7.39363 6.04226 7.28944 6.05056 7.18399C6.08285 7.08044 6.05056 7.10769 6.01291 7.27664L5.69005 7.59818C5.53444 7.68571 5.35575 7.7219 5.17888 7.70172C5.08202 7.70172 5.14659 7.78347 5.01206 7.65813C5.07125 7.70717 5.49096 7.99056 5.29725 7.82707C5.46281 7.96933 5.62086 8.12033 5.77076 8.27941C5.92681 8.4429 6.0721 8.61184 6.212 8.78623C6.48103 9.11867 6.08285 8.59005 6.31423 8.92248L6.45413 9.11867C6.54561 9.25492 6.61555 9.42387 6.71241 9.55466C6.80926 9.68546 6.64784 9.30941 6.68551 9.48382C6.72318 9.65821 6.7716 9.789 6.79851 9.94159C6.84693 10.2304 6.79851 9.68 6.79851 10.1105C6.79851 10.225 6.86845 10.3721 6.79851 10.2795C6.79851 10.1923 6.79851 10.1814 6.79851 10.2522C6.79851 10.3231 6.79851 10.3122 6.84693 10.1269C6.93409 9.99022 7.05704 9.88077 7.20206 9.8108C7.39578 9.7127 7.01374 9.8108 7.41192 9.76175C7.18054 9.76175 7.6164 9.8217 7.45496 9.76175L7.21821 9.7018C6.97608 9.63095 7.32583 9.76175 7.18054 9.7018C6.51326 9.39814 5.96975 8.87076 5.64163 8.20856C4.85064 6.6499 2.52612 8.02871 3.32249 9.58736V9.57646Z" fill="#0C0C0C" fill-opacity="0.752941"/>
<path d="M22.559 4.62793C22.6266 5.39517 22.437 6.16308 22.0209 6.80785C22.1125 6.69341 21.8971 6.9332 21.8865 6.955C21.9671 6.80785 21.8865 6.92231 21.9725 6.90595C22.2738 6.84055 22.3815 6.97134 22.6505 7.01495L22.6936 7.0858C22.6489 7.01992 22.6093 6.95069 22.5751 6.8787C22.5382 6.81466 22.5077 6.74712 22.4837 6.67706C22.4352 6.55716 22.4245 6.41002 22.3653 6.29557C22.3061 6.18113 22.3653 6.56806 22.3653 6.41547C22.3976 6.10483 22.3653 5.78329 22.3653 5.47265L22.4245 5.17836C22.4245 5.27646 22.4245 5.32006 22.4245 5.17836C22.4621 4.97126 22.4998 4.76418 22.5537 4.55708C22.595 4.38497 22.6471 4.21568 22.7097 4.05025C22.6343 4.27369 22.7689 3.88131 22.7097 4.05025C22.7097 3.99575 22.785 3.9467 22.8066 3.8922C22.742 4.09385 22.7635 3.97941 22.6773 4.03934C22.4453 4.20232 22.1558 4.25779 21.881 4.19195C21.7142 4.19195 21.5851 3.9685 21.8272 4.26279C22.3576 4.78471 23.2017 4.78471 23.732 4.26279C24.2418 3.72333 24.2418 2.87302 23.732 2.33356C23.26 1.66335 22.4371 1.34542 21.6442 1.52698C20.9322 1.81061 20.3926 2.41573 20.1861 3.16193C19.6998 4.36943 19.549 5.68872 19.7502 6.9768C20.0892 8.6608 21.6336 10.4156 23.3877 9.24937C24.7437 8.35015 25.384 6.23018 25.2495 4.66608C25.2351 3.9197 24.6411 3.31812 23.9042 3.30362C23.1637 3.30956 22.5649 3.91609 22.559 4.66608V4.62793Z" fill="#0C0C0C" fill-opacity="0.752941"/>
</g>
<defs>
<clipPath id="clip0_2314_425">
<rect width="40" height="36.67" fill="white" transform="translate(0.828125 0.666992)"/>
</clipPath>
</defs>
</svg>
