<svg width="22" height="40" viewBox="0 0 22 40" fill="none" xmlns="http://www.w3.org/2000/svg">
<g clip-path="url(#clip0_2314_416)">
<path d="M17.4985 1.94493C18.9249 3.02168 19.988 4.50863 20.5453 6.20646C21.0483 7.77949 21.1662 9.45026 20.8889 11.0783C20.73 12.1916 20.4211 13.2784 19.9708 14.309C19.1434 15.9958 18.041 17.5331 16.7086 18.8577C15.4608 20.0896 14.1493 21.2553 12.7796 22.3501C11.6267 23.2932 10.5465 24.3217 9.54811 25.427C8.91208 26.109 8.39916 26.868 7.83494 27.6116C7.27072 28.3552 6.74753 29.109 6.1987 29.8936C5.8653 30.3654 5.47547 30.1193 5.26517 29.4321C5.01581 28.459 5.14985 27.4272 5.63961 26.5501C6.72737 24.7601 8.06991 23.138 9.62505 21.7347C11.1023 20.3552 12.6052 19.1295 13.9952 17.8526C14.8236 17.104 15.5404 16.2405 16.1238 15.2885C16.6619 14.3482 17.079 13.3436 17.3651 12.2988C17.678 11.2168 17.7601 10.0812 17.6062 8.96544C17.5328 8.43492 17.3861 7.91713 17.1702 7.42698C16.9649 6.94441 16.6864 6.49641 16.3444 6.09877C15.9211 5.57769 15.4172 5.12758 14.8518 4.76544C14.2632 4.41726 13.6224 4.16618 12.9539 4.02185C10.7972 3.57196 8.55062 4.04425 6.75779 5.32441C5.44355 6.37487 4.48968 7.80898 4.02902 9.42698C3.90079 9.76544 3.87001 10.1295 3.75717 10.4526C3.38273 11.7449 3.13653 12.1398 2.21839 12.3757C2.01301 12.4434 1.80411 12.4998 1.59262 12.5449C1.24468 12.6109 0.892026 12.456 0.705254 12.1552C0.578647 11.9567 0.481869 11.7407 0.418015 11.5142C0.35602 11.2223 0.321673 10.9253 0.31543 10.627C0.354913 8.53175 1.0272 6.49739 2.24403 4.79108C3.55413 2.92919 5.4006 1.51063 7.53744 0.724417C10.861 -0.550332 14.5974 -0.125477 17.5498 1.86288L17.4985 1.94493Z" fill="#0C0C0C" fill-opacity="0.752941"/>
<path d="M6.59361 35.6572C6.6882 35.9145 6.72667 36.189 6.70646 36.4623L6.67568 36.8828C6.67568 37.0213 6.61413 37.1649 6.58336 37.3033L6.48077 37.7085C6.41594 37.8405 6.34402 37.9689 6.26534 38.0931C6.12921 38.3462 5.95635 38.5777 5.75241 38.7802C5.61392 38.9238 5.49082 39.0879 5.35745 39.2264C5.22409 39.3649 5.04456 39.4367 4.88556 39.5238C4.3279 39.738 3.70107 39.6692 3.20316 39.3392C3.09544 39.252 2.99286 39.1495 2.89027 39.0572C2.78769 38.9649 2.72613 38.8315 2.64407 38.7238C2.53555 38.5148 2.44957 38.2947 2.3876 38.0674C2.27857 37.7084 2.20807 37.3388 2.1773 36.9649C2.07886 36.4709 2.21957 35.9595 2.55687 35.5854C2.66971 35.4726 2.95182 35.6879 3.22367 35.929C3.49553 36.17 3.79815 36.4008 3.81867 36.5136C3.83908 36.7345 3.88205 36.9527 3.9469 37.1649C4.00332 37.3802 4.09565 37.5546 4.03923 37.6777C4.03628 37.7184 4.05082 37.7585 4.07921 37.7878C4.1076 37.8172 4.14716 37.8331 4.18798 37.8315C4.26438 37.8165 4.33528 37.7811 4.39315 37.729C4.56733 37.6055 4.69116 37.4235 4.74194 37.2161C4.8165 36.8967 4.63362 36.5733 4.32134 36.4726C4.22798 36.4337 4.12017 36.4633 4.05974 36.5443C3.94177 36.6572 3.94177 36.9085 3.96742 37.1597C3.97429 37.2125 3.97429 37.2659 3.96742 37.3187C3.89048 37.5085 3.67505 37.5136 3.02363 37.4264L2.58252 37.37C2.15355 37.3556 1.76986 37.0993 1.59257 36.7084C1.54082 36.5795 1.51301 36.4422 1.5105 36.3033C1.51776 36.1604 1.5349 36.0182 1.56179 35.8777C1.63021 35.5677 1.75354 35.2724 1.92597 35.0059C2.03914 34.8573 2.16254 34.7168 2.29528 34.5854C2.44149 34.4351 2.61575 34.3149 2.8082 34.2315C3.00844 34.1202 3.22473 34.0407 3.44936 33.9956C3.6629 33.9434 3.88112 33.9124 4.10078 33.9033C5.34206 33.9033 6.1525 34.7341 6.66542 35.6161L6.59361 35.6572Z" fill="#0C0C0C" fill-opacity="0.752941"/>
</g>
<defs>
<clipPath id="clip0_2314_416">
<rect width="21.03" height="40" fill="white" transform="translate(0.31543)"/>
</clipPath>
</defs>
</svg>
