<svg width="41" height="40" viewBox="0 0 41 40" fill="none" xmlns="http://www.w3.org/2000/svg">
<g clip-path="url(#clip0_2314_505)">
<path d="M6.65866 29.9687C6.74845 29.8377 6.82297 29.6969 6.8809 29.549C6.90051 29.5456 6.92056 29.5456 6.94017 29.549C6.99958 29.5307 7.05737 29.5076 7.11303 29.4799C7.20686 29.4008 7.0587 29.5342 7.03401 29.6181C7.03401 29.6181 6.97968 29.5885 6.89078 29.5786H6.83646C6.83646 29.5786 6.83646 29.5786 6.78213 29.5786C6.62295 29.6128 6.46743 29.6624 6.31789 29.7268C5.68508 30.0064 5.03708 30.2504 4.37696 30.4576C3.87872 30.6014 3.35243 30.6184 2.84595 30.507C2.69791 30.4624 2.55541 30.4011 2.42122 30.3243C2.227 30.2064 2.07094 30.0349 1.97179 29.8305C1.7989 29.3498 1.80945 28.8223 2.00142 28.349C2.08878 28.1519 2.1999 27.9661 2.33232 27.7959C2.48048 27.6329 2.63358 27.4749 2.8262 27.3021C3.32999 26.8587 3.89564 26.4911 4.50537 26.2107C4.65587 26.1393 4.80258 26.0602 4.94492 25.9737C5.05851 25.9045 5.21161 25.8206 5.20667 25.7959C5.24226 25.7634 5.26939 25.7227 5.28569 25.6774C5.29425 25.6575 5.30592 25.6392 5.32026 25.6231L5.34496 25.5292L5.37459 25.4008H5.46349C5.50414 25.3892 5.54378 25.3744 5.58202 25.3564C5.54667 25.4056 5.51686 25.4586 5.49312 25.5144C5.49312 25.5391 5.46349 25.5144 5.40916 25.5144C4.98649 25.5277 4.56838 25.606 4.16954 25.7465C3.71023 25.8799 3.24105 26.0231 2.74718 26.1465C2.43603 26.2206 2.36195 25.9687 2.48048 25.5885C2.64935 25.0735 3.00064 24.6379 3.46823 24.3638C3.72503 24.2267 3.98879 24.1031 4.25843 23.9934C4.57415 23.8614 4.90651 23.7733 5.24618 23.7317C5.50546 23.6996 5.76845 23.7163 6.02156 23.7811C6.2161 23.8323 6.40002 23.9176 6.56482 24.0329C6.7688 24.1698 6.9379 24.3524 7.0587 24.5663C7.23728 24.8907 7.32273 25.2581 7.30564 25.628C7.29937 25.7491 7.2845 25.8695 7.26119 25.9885C7.23985 26.1014 7.20844 26.2121 7.16735 26.3194C7.1229 26.4428 7.07352 26.5663 7.01919 26.6848C6.95918 26.7937 6.8932 26.8992 6.82164 27.0008L6.71299 27.149C6.68829 27.0848 6.68829 27.0848 6.68829 27.0848L6.61421 27.1441H6.4858C6.29784 27.179 6.11293 27.2285 5.93266 27.2922C5.60671 27.3959 5.43879 27.6478 5.48324 27.8552C5.52275 27.9589 5.66104 27.949 5.75487 27.9292L6.0265 27.8502C6.23556 27.7734 6.45257 27.7204 6.67348 27.6922C6.71299 27.6922 6.71793 27.6922 6.89572 27.6922C7.07352 27.6922 7.14266 27.7218 7.26613 27.7416C7.39597 27.7659 7.52329 27.8023 7.64641 27.8502C7.78618 27.8942 7.91913 27.9574 8.04151 28.0379C8.17555 28.1225 8.29833 28.2237 8.40698 28.3391C8.69417 28.681 8.84381 29.1176 8.82677 29.5638C8.80875 30.1245 8.64903 30.6716 8.36253 31.1539C8.22582 31.3956 8.05998 31.6195 7.86865 31.8206C7.80939 31.8749 7.77482 31.9243 7.70074 31.9836C7.62666 32.0428 7.55257 32.1021 7.49331 32.1416C7.38164 32.212 7.26628 32.2763 7.1476 32.3342C6.78707 32.4922 6.47099 32.586 6.10552 32.749C5.93242 32.8212 5.76697 32.9105 5.61165 33.0157C5.46349 33.1095 5.29063 33.2724 5.37953 33.4552C5.46843 33.6379 5.66104 33.5984 5.82401 33.5885C5.98699 33.5786 6.16972 33.549 6.31789 33.5292C6.58073 33.4863 6.84806 33.478 7.11303 33.5045H7.2118L7.31551 33.549C7.45992 33.6057 7.59742 33.6786 7.72543 33.7663C8.08191 33.9778 8.33956 34.3225 8.44155 34.7243C8.44822 34.983 8.333 35.2299 8.13041 35.391C8.04398 35.4813 7.94975 35.564 7.8489 35.6379C7.67718 35.7326 7.47543 35.7574 7.28588 35.707C7.08191 35.675 6.88777 35.5973 6.71793 35.4799C6.62666 35.4049 6.52304 35.3464 6.41172 35.307L6.32776 35.2724H6.28332L6.13515 35.228C6.0262 35.1816 5.90703 35.1645 5.78944 35.1786C5.65116 35.1786 5.52769 35.1786 5.35484 35.2082C5.02711 35.2502 4.69741 35.275 4.36709 35.2823C4.22997 35.2809 4.09307 35.271 3.95717 35.2527C3.84852 35.2527 3.72011 35.2132 3.63615 35.1885C3.48412 35.1482 3.33678 35.0919 3.1966 35.0206C3.10114 34.9808 3.01009 34.9312 2.92497 34.8724C2.80942 34.8003 2.70466 34.7122 2.61383 34.6107C2.48427 34.4601 2.3928 34.2806 2.34714 34.0873C2.30059 33.927 2.28057 33.7602 2.28787 33.5934L2.33726 33.2132C2.35237 32.9801 2.43281 32.7559 2.56938 32.5663C2.61684 32.4763 2.67855 32.3946 2.75211 32.3243C2.83113 32.2453 2.89534 32.1663 2.98424 32.0873L3.25587 31.8354C3.36946 31.7564 3.5028 31.6823 3.62133 31.6033C3.73986 31.5243 3.88309 31.4453 4.01643 31.3663C4.15478 31.2817 4.29828 31.2058 4.44611 31.1391L5.36965 30.6996L5.83389 30.4724L6.13515 30.3144C6.17214 30.3002 6.21007 30.2886 6.24874 30.2799L6.37221 30.4576C6.4576 30.5719 6.54996 30.6807 6.64878 30.7836L6.72286 30.8626L6.18454 30.2799C6.33023 30.1774 6.45163 30.0442 6.54013 29.8897L6.65866 29.9687Z" fill="#F0F0F0"/>
<path d="M8.87135 28.4036L9.03433 29.5246C9.0689 29.9049 9.11335 30.2802 9.13804 30.6555C9.13804 30.932 9.22694 31.1938 9.23188 31.4703C9.22936 32.4405 9.13177 33.408 8.94049 34.3592C8.87629 34.7839 8.81209 35.2036 8.75282 35.6234C8.68965 36.1805 8.48944 36.7132 8.17005 37.174C8.05646 37.3172 7.79964 37.174 7.55271 36.9419C7.29263 36.7389 7.11676 36.447 7.05883 36.1222C7.09661 35.1542 7.20556 34.1902 7.38479 33.2382C7.43299 32.6253 7.40983 32.0088 7.31565 31.4012C7.28601 31.0604 7.26132 30.7197 7.21193 30.3839C7.16254 30.0481 7.12303 29.7024 7.05883 29.3617C6.99463 28.9419 6.88597 28.532 6.7872 28.1172C6.64398 27.4918 6.44564 26.8804 6.19455 26.2901C5.93986 25.8611 5.64907 25.4547 5.32531 25.0752C5.26111 24.9864 5.18209 24.9123 5.12282 24.8185C4.91539 24.4728 4.97466 24.295 5.3747 23.9543C5.46853 23.8802 5.55249 23.7962 5.65127 23.7271C5.92178 23.4908 6.32029 23.4743 6.6094 23.6876C6.81115 23.8393 7.00253 24.0042 7.1823 24.1814C7.34893 24.3714 7.49774 24.5764 7.62679 24.7938C7.89195 25.23 8.11676 25.6895 8.29846 26.1666C8.56243 26.8853 8.77692 27.6211 8.94049 28.3691L8.87135 28.4036Z" fill="#F0F0F0"/>
<path d="M20.3291 15.9537C18.5817 18.3677 16.3642 20.4036 13.8099 21.9388C13.3506 22.2154 12.8864 22.487 12.4221 22.7536C11.9557 23.0153 11.476 23.2526 10.985 23.4648C9.71327 24.01 8.40248 24.459 7.06359 24.808C6.39685 24.9709 5.73506 25.1487 5.05847 25.2672C4.72263 25.3314 4.39174 25.4005 4.07072 25.4598L3.57684 25.5289H3.36448C3.26137 25.5382 3.15905 25.5547 3.05827 25.5784C2.99396 25.657 2.96693 25.7597 2.98419 25.8599C2.98695 25.9625 2.99686 26.0647 3.01383 26.166V26.25L3.0484 26.403L3.12742 26.7388C3.30521 27.4993 3.54227 28.2746 3.75958 29.0647C3.97688 29.8549 4.09541 30.6747 4.21394 31.4944C4.38837 32.5736 4.42157 33.6709 4.31272 34.7586C4.18138 35.8993 3.74647 36.9839 3.05334 37.8994C2.55946 38.4574 2.28783 38.0425 2.14461 37.3561C2.06559 37.0104 1.9915 36.5907 1.93224 36.1611C1.85302 35.7081 1.8265 35.2474 1.85322 34.7882C1.89372 33.9962 1.87556 33.2023 1.79889 32.4129C1.70058 31.5716 1.55882 30.7359 1.37416 29.9092C1.25563 29.0599 1.16179 28.166 0.993876 27.2326L0.850653 26.324C0.806687 26.1156 0.776986 25.9044 0.761755 25.692C0.74185 25.4916 0.74185 25.2898 0.761755 25.0894C0.807171 24.7221 0.964011 24.3774 1.21118 24.1018C1.50812 23.8566 1.86392 23.6932 2.24338 23.6277L2.90517 23.5241L3.23113 23.4796L3.40893 23.4549C3.65092 23.4549 3.9028 23.4006 4.12011 23.3611C6.55736 22.9581 8.9127 22.1608 11.0936 21.0006C13.5151 19.7952 15.6698 18.1159 17.43 16.0623C18.5146 14.7797 19.4554 13.382 20.2352 11.8944C20.6303 11.2376 21.0007 10.5561 21.3909 9.86479C21.5885 9.51417 21.7959 9.17343 22.0231 8.79813C22.2683 8.30311 22.7408 7.95985 23.2874 7.87961H23.5886C23.6659 7.87477 23.7435 7.87477 23.8208 7.87961C23.987 7.88948 24.1521 7.91259 24.3146 7.94874C24.6422 8.01585 24.955 8.14128 25.2382 8.31911C25.7869 8.69343 26.1939 9.24128 26.3939 9.87467C26.7023 10.9561 26.7481 12.0955 26.5272 13.1981C26.4377 13.7278 26.3123 14.2508 26.1519 14.7636C25.9807 15.2725 25.771 15.7678 25.5246 16.245C25.3171 16.6703 25.0812 17.0811 24.8184 17.4747C24.4643 18.0165 24.0101 18.4858 23.48 18.8574C23.2045 19.055 22.8567 19.1235 22.5268 19.045C22.3926 19.0288 22.2613 18.9939 22.1367 18.9413C21.786 18.7438 22.1021 18.1166 22.6947 17.1931C23.5402 15.7855 24.1398 14.2441 24.4677 12.6351C24.6378 11.9373 24.6513 11.2104 24.5072 10.5068C24.4618 10.2974 24.3572 10.1054 24.206 9.95363C24.0487 9.81763 23.8506 9.73773 23.643 9.72652C23.602 9.72133 23.5605 9.72133 23.5195 9.72652C23.5195 9.72652 23.5195 9.72652 23.5442 9.72652C23.5087 9.76958 23.4773 9.8159 23.4504 9.86479L23.3417 10.0278C23.2775 10.171 23.2281 10.2993 23.1688 10.4475L22.4922 12.2994C22.3684 12.627 22.225 12.947 22.0626 13.2573C21.8947 13.5684 21.7169 13.8746 21.5391 14.1808C21.1736 14.7882 20.7933 15.3907 20.3785 15.9734L20.3291 15.9537Z" fill="#F0F0F0"/>
<path d="M24.3937 39.6823C23.1294 39.5885 21.9243 39.4058 20.6748 39.2477C20.2254 39.1786 19.776 39.1737 19.3315 39.0996C17.7659 38.823 16.2102 38.4971 14.6644 38.1465C13.9779 37.9835 13.2865 37.8601 12.595 37.7268C12.1555 37.6428 11.7061 37.5588 11.2616 37.4502L10.9257 37.3514L10.6393 37.1687C10.4297 37.0424 10.23 36.9004 10.0417 36.744C9.80465 36.5465 9.93305 36.3984 10.2541 36.2502C10.4121 36.1613 10.6245 36.0527 10.8418 35.944C10.9603 35.8897 11.0887 35.8305 11.2171 35.7811L11.4097 35.7119C11.4672 35.705 11.5252 35.705 11.5826 35.7119C13.2519 36.0379 15.0397 36.2305 16.7683 36.744C17.8456 36.9713 18.9385 37.1166 20.0377 37.1786C21.2428 37.3202 22.4462 37.437 23.648 37.5292L24.7592 37.5885H25.8605C26.3863 37.5762 26.9108 37.5317 27.431 37.4551C27.5486 37.4403 27.6644 37.4138 27.7768 37.3761C27.8848 37.348 27.9904 37.3117 28.0928 37.2675C28.2018 37.2187 28.3074 37.1626 28.4089 37.0996C28.4916 37.0507 28.5708 36.9963 28.646 36.9366C28.8302 36.802 28.9529 36.5993 28.9868 36.3737C29.0019 36.1589 28.8759 35.959 28.6756 35.8798C28.6003 35.8526 28.5226 35.8328 28.4435 35.8206C28.3936 35.8048 28.3479 35.7778 28.3101 35.7416C28.2707 35.6788 28.2408 35.6106 28.2212 35.5391C28.1502 35.2956 28.1268 35.0408 28.1521 34.7885C28.1521 34.6502 28.1521 34.5169 28.1521 34.3934C28.1755 34.1758 28.2928 33.9792 28.4731 33.8551C28.5925 33.7663 28.7198 33.6885 28.8534 33.623C28.9324 33.5934 29.0016 33.5243 29.1003 33.5342L29.4214 33.5934C30.1144 33.7299 30.7311 34.1211 31.1499 34.6897C31.3483 34.979 31.4969 35.2995 31.5895 35.6379C31.6331 35.9906 31.6147 36.3482 31.5351 36.6947C31.4364 37.4107 30.7993 37.9984 30.2116 38.5169C29.9441 38.7377 29.6563 38.9328 29.3522 39.0996L28.9917 39.2774C28.8487 39.338 28.7019 39.3892 28.5521 39.4305C28.1665 39.5585 27.7669 39.6397 27.3619 39.6724C27.1872 39.7009 27.0105 39.7158 26.8335 39.7169H26.3396C25.9988 39.7169 25.6827 39.7169 25.3518 39.7169C25.0209 39.7169 24.6999 39.7169 24.3641 39.6872L24.3937 39.6823Z" fill="#F0F0F0"/>
<path d="M33.5994 29.7371C33.6735 29.8359 33.7328 29.9396 33.8019 30.0433L33.8958 30.1963C33.9157 30.2604 33.9273 30.3268 33.9303 30.3939C33.9303 30.6655 33.9945 30.9321 33.9945 31.1988V31.5889C34.0118 31.7168 34.0118 31.8463 33.9945 31.9741L33.9205 32.3494C33.889 32.4583 33.8442 32.5628 33.7871 32.6605C33.718 32.8087 33.6587 32.9519 33.5945 33.0704C33.5385 33.1987 33.4672 33.3198 33.3821 33.4309C33.1024 33.7933 32.7511 34.0942 32.3499 34.3149C31.986 34.5278 31.5911 34.6827 31.1794 34.7741C30.83 34.8696 30.47 34.921 30.1077 34.9272C29.6304 34.9814 29.1516 34.8367 28.7842 34.5272C28.6706 34.4284 28.8187 34.2457 29.0212 34.0729C29.1845 33.9074 29.3865 33.7851 29.6089 33.7173C29.8969 33.7124 30.1828 33.6676 30.4584 33.584C30.7536 33.5092 31.0425 33.4118 31.3227 33.2926C31.6522 33.1262 31.8987 32.8316 32.0042 32.4778C32.0734 32.305 32.0882 32.1667 32.1277 32.0729C32.1573 31.9484 32.1705 31.8206 32.1672 31.6926C32.1805 31.5112 32.083 31.3396 31.9203 31.2581C31.8562 31.2315 31.7902 31.2101 31.7227 31.1939C31.6718 31.1897 31.6206 31.1897 31.5696 31.1939H31.3819C31.1054 31.1939 30.814 31.1445 30.5028 31.105C29.992 31.0846 29.4842 31.0152 28.9866 30.8976C28.8713 30.8732 28.7575 30.8419 28.6459 30.8038C28.5726 30.7525 28.5104 30.6871 28.4631 30.6112C28.4433 30.5184 28.4433 30.4225 28.4631 30.3297C28.5188 30.1062 28.6159 29.8951 28.7496 29.7075C28.8187 29.5988 28.8829 29.4902 28.957 29.3914C29.076 29.2346 29.2195 29.0979 29.3817 28.9865C29.546 28.8559 29.7193 28.737 29.9003 28.6309C30.0508 28.591 30.2045 28.5646 30.3596 28.5519C30.4682 28.5454 30.577 28.5454 30.6856 28.5519C30.891 28.5335 31.0976 28.5335 31.3029 28.5519C31.5103 28.5519 31.7573 28.7297 32.3697 28.8383L33.1056 29.1247L33.3969 29.3865L33.6389 29.6877L33.5994 29.7371Z" fill="#F0F0F0"/>
<path d="M29.6535 22.8921C30.5079 23.2329 31.4067 23.5637 32.3401 24.0032C32.7123 24.1408 33.067 24.3215 33.397 24.5415C34.0824 25.0104 34.6012 25.6848 34.8787 26.4674C34.9697 26.8309 35.0177 27.2039 35.0219 27.5785C35.0247 27.7789 35.0082 27.979 34.9725 28.1761C34.9295 28.3865 34.8598 28.5907 34.7651 28.7835C34.5924 29.1223 34.3377 29.4126 34.0243 29.6279C33.7445 29.8075 33.4377 29.9409 33.1155 30.023C32.386 30.2751 31.5868 30.2326 30.8882 29.9045C30.6758 29.7958 30.7746 29.5588 30.9968 29.3069C31.2264 29.0139 31.5298 28.7873 31.8759 28.6501C32.3108 28.6352 32.7309 28.4889 33.081 28.2304C33.1395 28.174 33.1807 28.102 33.1995 28.023C33.2301 27.8283 33.2301 27.63 33.1995 27.4353C33.1924 27.3603 33.1792 27.286 33.16 27.2131C33.1466 27.163 33.1267 27.1148 33.1007 27.0699C33.0413 26.9625 32.9586 26.8697 32.8587 26.7983C32.6004 26.6048 32.3223 26.4392 32.029 26.3045C31.2472 25.9018 30.4347 25.5616 29.5991 25.2872L27.9249 24.7143C27.0765 24.3972 26.2514 24.021 25.4555 23.5884C24.7466 23.2781 24.0822 22.8746 23.48 22.3884C23.3425 22.2748 23.2152 22.1492 23.0997 22.0131C22.7046 21.46 22.8182 21.144 23.2331 20.823C23.3274 20.7447 23.4263 20.6721 23.5294 20.6057C23.8605 20.4257 24.2602 20.4257 24.5912 20.6057C25.0308 20.8576 25.3963 21.0995 25.8259 21.2921C26.2556 21.4847 26.705 21.7119 27.2137 21.9094C27.9644 22.2008 28.7694 22.5464 29.6485 22.8279L29.6535 22.8921Z" fill="#F0F0F0"/>
<path d="M29.8313 7.19847C29.9005 7.3318 29.7079 7.40094 29.3671 7.43551C29.2102 7.43121 29.0558 7.39595 28.9127 7.3318C28.8365 7.25956 28.7655 7.18198 28.7003 7.0997C28.6707 7.05526 28.5769 6.39353 28.5127 6.17131C28.4649 5.96588 28.4483 5.75447 28.4633 5.54415C28.4633 5.1244 28.4633 4.70956 28.4337 4.30462C28.4298 4.21403 28.4432 4.12354 28.4732 4.03796C28.5848 3.74347 28.6122 3.42368 28.5522 3.1145C28.5522 3.06018 28.5522 3.0108 28.488 2.96141C28.3701 2.64607 28.318 2.30997 28.3349 1.97376C28.4287 1.69228 28.4485 1.41573 28.5522 1.11944C28.5522 1.07993 28.5522 1.04042 28.6114 0.991042C28.7142 0.937956 28.7688 0.822711 28.7448 0.70956C28.7448 0.650301 28.7448 0.586104 28.7448 0.521906C28.7623 0.453607 28.7872 0.387386 28.8189 0.324375C28.8694 0.247903 28.9255 0.175276 28.9868 0.107091C29.0627 0.0534123 29.1569 0.0320961 29.2485 0.0478323C29.3226 0.0873383 29.4066 0.0231409 29.4807 0.00338787C29.5085 -0.00112929 29.5368 -0.00112929 29.5646 0.00338787C29.7074 0.0969254 29.8443 0.199177 29.9745 0.309561C30.1036 0.424783 30.2196 0.553965 30.3203 0.694746L30.3943 0.867585C30.4546 0.989812 30.5042 1.11704 30.5425 1.24783C30.6215 1.53425 30.6956 1.84042 30.7203 1.89968C30.745 1.95894 30.7203 2.03302 30.6857 2.10215C30.6512 2.17129 30.8833 3.01573 30.8685 3.05524C30.8685 3.23796 30.9228 3.42561 30.7647 3.60833C30.7484 3.64444 30.7484 3.68579 30.7647 3.72191C30.7659 4.04019 30.7176 4.35673 30.6215 4.66018C30.5869 4.81326 30.5869 4.97625 30.5623 5.12933C30.5623 5.15896 30.5326 5.18859 30.5227 5.21328C30.5003 5.24469 30.4836 5.2798 30.4734 5.31699C30.4388 5.68736 30.3005 6.04785 30.2956 6.41328C30.2956 6.50217 30.0634 6.87254 30.0684 6.97131C30.0733 7.07007 29.8017 7.14415 29.8313 7.19847Z" fill="#F0F0F0"/>
<path d="M34.0884 14.2904C34.0391 14.399 33.8909 14.3497 33.6884 14.2311C33.6038 14.1682 33.5387 14.0827 33.5007 13.9842C33.5079 13.8995 33.5211 13.8153 33.5402 13.7324C33.5402 13.6879 33.9403 13.1645 34.0736 12.9719C34.1981 12.7874 34.3477 12.6213 34.5181 12.4781C34.8426 12.1801 35.1987 11.9185 35.5799 11.6978C35.6667 11.6474 35.7622 11.614 35.8615 11.599C36.1943 11.5466 36.5163 11.4398 36.8146 11.283C36.864 11.283 36.9233 11.2484 36.9579 11.1744C37.2774 10.9571 37.6454 10.8215 38.0296 10.7793C38.1925 10.8089 38.3456 10.804 38.5234 10.8435L38.9877 10.9521C39.0321 10.9521 39.0766 10.9521 39.121 11.0114C39.2247 11.1694 39.3087 11.1398 39.3976 11.1546C39.5268 11.1637 39.6529 11.199 39.768 11.2583C39.8379 11.3078 39.8982 11.3698 39.9458 11.441C40.0001 11.5003 39.9458 11.7077 39.9458 11.7324C39.9458 11.7571 39.9458 11.8953 39.9458 11.9842V12.0731C39.7414 12.2775 39.52 12.4642 39.284 12.6311L39.1457 12.6855L38.8494 12.8139C38.637 12.9126 38.4099 12.9571 38.3555 12.9966C38.3012 13.0361 38.2518 12.9966 38.1975 12.9966C38.1432 12.9966 37.5456 13.2781 37.5209 13.283C37.3777 13.283 37.2641 13.4065 37.0813 13.3176C37.0538 13.3017 37.0199 13.3017 36.9924 13.3176C36.7574 13.4079 36.5165 13.4821 36.2714 13.5398C36.1479 13.5793 36.0343 13.6435 35.9108 13.683C35.9108 13.683 35.8565 13.683 35.8318 13.683C35.7993 13.6754 35.7655 13.6754 35.733 13.683C35.4351 13.7843 35.1487 13.9167 34.8786 14.0781C34.8194 14.1176 34.444 14.1916 34.3848 14.2509C34.3255 14.3102 34.1082 14.246 34.0884 14.2904Z" fill="#F0F0F0"/>
</g>
<defs>
<clipPath id="clip0_2314_505">
<rect width="39.51" height="40" fill="white" transform="translate(0.746826)"/>
</clipPath>
</defs>
</svg>
