<svg width="24" height="24" viewBox="0 0 24 24" fill="none" xmlns="http://www.w3.org/2000/svg">
<path d="M9.1123 3.04108C9.84332 2.9184 10.532 3.08411 11.2666 3.39948C11.9858 3.70823 12.8348 4.19905 13.8906 4.80866L15.7637 5.89069H12.7637C11.8728 5.37787 11.2192 5.01113 10.6748 4.77741C10.0722 4.51873 9.69321 4.464 9.36133 4.5196C9.21993 4.54333 9.08061 4.58078 8.94629 4.63092C8.63098 4.74866 8.33012 4.98542 7.9375 5.51081C7.85088 5.62674 7.76343 5.75342 7.67188 5.89069H7C6.59041 5.8907 6.19265 5.94164 5.81348 6.03913C6.14515 5.48049 6.44385 5.0035 6.73535 4.61335C7.21387 3.97292 7.72746 3.48491 8.42188 3.22565C8.64557 3.14215 8.87683 3.08063 9.1123 3.04108Z" fill="white" fill-opacity="0.56"/>
<path d="M17 5.89087C19.5395 5.89087 21.6142 7.88371 21.7441 10.3909H21.75V16.8909H21.7441C21.6142 19.398 19.5395 21.3909 17 21.3909H7C4.37665 21.3909 2.25 19.2642 2.25 16.6409V10.6409C2.25 8.01752 4.37665 5.89087 7 5.89087H17ZM7 7.39087C5.20507 7.39087 3.75 8.84594 3.75 10.6409V16.6409C3.75 18.4358 5.20507 19.8909 7 19.8909H17C18.7108 19.8909 20.1116 18.5689 20.2393 16.8909H16.5205C14.7256 16.8909 13.2705 15.4358 13.2705 13.6409C13.2705 11.8459 14.7256 10.3909 16.5205 10.3909H20.2393C20.1116 8.7128 18.7108 7.39087 17 7.39087H7ZM16.5205 11.8909C15.554 11.8909 14.7705 12.6744 14.7705 13.6409C14.7705 14.6074 15.554 15.3909 16.5205 15.3909H20.25V11.8909H16.5205Z" fill="white" fill-opacity="0.56"/>
<circle cx="16.5017" cy="13.6409" r="0.75" fill="white" fill-opacity="0.56"/>
</svg>
