<svg width="54" height="68" viewBox="0 0 54 68" fill="none" xmlns="http://www.w3.org/2000/svg">
<g filter="url(#filter0_i_2079_153)">
<path d="M0.319527 22.8359C0 16.4758 3.51479 10.2066 8.94675 6.11792C14.1657 2.21099 21.3018 0.938965 27.7988 0.938965C35.6805 0.938965 43.1361 3.21044 47.929 8.48026C51.9763 12.478 54 17.8387 54 23.1085C54 32.3761 48.9941 36.8282 39.9408 43.5517L23.0059 55.9994H52.4024V67.6295H0V55.9994L32.4852 32.5578C37.3846 29.0143 39.0887 25.7434 39.0887 22.9268C39.0887 20.5645 38.2367 18.2021 36.426 16.2941C34.0829 13.8409 30.781 12.5689 26.9467 12.5689C23.9645 12.5689 21.0888 13.5683 18.9586 15.2947C16.6154 17.2027 15.1242 20.0193 15.2308 22.8359H0.319527Z" fill="url(#paint0_linear_2079_153)"/>
</g>
<defs>
<filter id="filter0_i_2079_153" x="0" y="0.938965" width="54" height="70.6904" filterUnits="userSpaceOnUse" color-interpolation-filters="sRGB">
<feFlood flood-opacity="0" result="BackgroundImageFix"/>
<feBlend mode="normal" in="SourceGraphic" in2="BackgroundImageFix" result="shape"/>
<feColorMatrix in="SourceAlpha" type="matrix" values="0 0 0 0 0 0 0 0 0 0 0 0 0 0 0 0 0 0 127 0" result="hardAlpha"/>
<feOffset dy="4"/>
<feGaussianBlur stdDeviation="2"/>
<feComposite in2="hardAlpha" operator="arithmetic" k2="-1" k3="1"/>
<feColorMatrix type="matrix" values="0 0 0 0 0 0 0 0 0 0 0 0 0 0 0 0 0 0 0.75 0"/>
<feBlend mode="normal" in2="shape" result="effect1_innerShadow_2079_153"/>
</filter>
<linearGradient id="paint0_linear_2079_153" x1="26.4371" y1="-29.2548" x2="26.4371" y2="77.599" gradientUnits="userSpaceOnUse">
<stop offset="0.793269" stop-color="#3C3C3C"/>
<stop offset="1" stop-color="#3C3C3C" stop-opacity="0"/>
</linearGradient>
</defs>
</svg>
