<svg width="23" height="24" viewBox="0 0 23 24" fill="none" xmlns="http://www.w3.org/2000/svg">
<g clip-path="url(#clip0_2111_959)">
<path d="M19.469 20.163C18.6986 21.044 17.811 21.7702 16.8416 22.3127C15.8949 22.8347 14.8967 23.2153 13.8701 23.4458C13.1391 23.6289 12.3963 23.7387 11.6497 23.7741C9.0233 23.8454 6.43748 23.0006 4.2164 21.3455C3.23225 20.609 2.35264 19.6942 1.60996 18.6346C1.12803 17.9524 0.725482 17.1974 0.412972 16.3896C0.138622 15.5642 -0.00147335 14.6853 1.16834e-05 13.7987C1.16834e-05 13.2516 0.320206 13.3045 0.718206 13.6539C1.22353 14.1144 1.65868 14.6731 2.00496 15.3059C2.51299 16.618 3.26469 17.7786 4.20443 18.7017C5.18694 19.678 6.29904 20.4568 7.49614 21.0066C8.97142 21.7127 10.6921 21.7973 12.3081 21.6279C14.0958 21.4894 15.8157 20.7671 17.2755 19.5418C18.161 18.7698 18.9077 17.7979 19.472 16.6826C20.346 14.944 20.8768 12.9956 21.0251 10.9818C21.1163 9.42764 21.0278 7.86608 20.7617 6.34009C20.7079 6.00472 20.6331 5.67999 20.5792 5.34467C20.4475 4.08802 20.4804 3.67149 20.9234 3.25497C21.0044 3.16053 21.0903 3.07211 21.1807 2.99023C21.4321 2.77844 21.9617 3.19143 22.267 4.15861C22.5109 4.87781 22.6846 5.62745 22.7846 6.393C22.8992 7.17368 22.9682 7.9627 22.9912 8.75449C23.0387 10.3902 22.8947 12.0258 22.5632 13.6151C22.0745 16.0994 21.0154 18.377 19.5019 20.1983L19.469 20.163Z" fill="white"/>
<path d="M5.78796 4.0948C5.89872 5.2385 6.50017 6.6822 7.43083 7.18699C7.83182 7.4058 8.42735 7.26817 8.52908 6.66102C8.66686 5.59088 8.48148 4.49769 8.00538 3.57238C7.81444 3.1291 7.53132 2.75019 7.18247 2.47106C6.92739 2.31357 6.62468 2.30521 6.36367 2.44844C6.10262 2.59168 5.91305 2.87016 5.85082 3.20174C5.58149 4.29247 7.02386 4.75842 7.29318 3.66768L7.32609 3.52649L6.98197 4.05597L6.8054 4.11598L6.28472 3.8583C6.79045 4.33483 7.22139 5.41495 7.09268 6.19156L8.19093 5.66205C7.7151 5.31556 7.38819 4.74483 7.29318 4.0948C7.28071 3.61365 6.95296 3.22703 6.54506 3.21233C6.13327 3.21617 5.80022 3.60902 5.79694 4.0948H5.78796Z" fill="white"/>
<path d="M10.3188 1.73317C10.4325 2.90155 11.055 4.46175 12.0066 4.9877C12.4076 5.20655 13.0061 5.06536 13.1048 4.45822C13.2381 3.3434 13.0404 2.20852 12.5452 1.24604C12.3538 0.795073 12.0674 0.409738 11.7133 0.127074C11.4612 -0.0306246 11.1614 -0.0421437 10.9011 0.0958612C10.6408 0.233866 10.4491 0.505929 10.3817 0.833045C10.1124 1.9273 11.5577 2.39325 11.824 1.30252L11.86 1.16132L11.5158 1.69081L11.3363 1.75081L10.8066 1.49313C11.3333 1.99084 11.7941 3.18041 11.6625 3.98522L12.7607 3.45927C12.3058 3.20865 11.8629 2.30853 11.8151 1.72963C11.7073 0.614197 10.2081 0.600078 10.3188 1.72963V1.73317Z" fill="white"/>
</g>
<defs>
<clipPath id="clip0_2111_959">
<rect width="23" height="24" fill="white"/>
</clipPath>
</defs>
</svg>
