<svg width="171" height="54" viewBox="0 0 171 54" fill="none" xmlns="http://www.w3.org/2000/svg">
<path d="M0.63551 12.7136C22.6439 11.6676 44.6465 10.5053 66.643 9.2268L132.651 5.493C145.1 4.79565 157.55 3.95299 169.999 3.38638V0.0593738C150.846 3.88034 131.693 8.12265 112.61 12.2051L55.6652 24.3363L23.3491 31.2083C22.0258 31.4843 21.93 34.8259 23.3491 34.7677L87.5374 32.2834L105.758 31.586L105.471 28.0411C91.542 32.1284 77.639 36.2061 63.7617 40.274C62.4994 40.6517 62.8911 43.7608 64.049 43.8625L97.2358 46.4196L96.9396 42.7002C91.6118 45.0103 86.2225 47.0588 80.9556 49.7175C79.7894 50.3131 79.9548 53.4803 81.2518 53.3786C82.1224 53.3786 83.0624 53.1898 83.9593 53.1752C84.227 53.1752 84.484 52.9977 84.6735 52.6816C84.8629 52.3655 84.9691 51.937 84.9691 51.49C84.9691 51.043 84.8629 50.6143 84.6735 50.2983C84.484 49.9822 84.227 49.8047 83.9593 49.8047C83.0886 49.8047 82.1571 49.703 81.2518 49.6593L81.5564 53.3205C86.9278 51.3301 92.2209 48.7005 97.5404 46.3614C97.8041 46.2361 98.0327 45.9559 98.183 45.5725C98.3334 45.189 98.3954 44.7279 98.3585 44.2739C98.3216 43.82 98.1875 43.4035 97.9813 43.1011C97.7751 42.7986 97.5102 42.6306 97.2358 42.6276L64.049 40.2159L64.3362 43.7899C78.2654 39.6735 92.169 35.5813 106.046 31.5134C107.247 31.1647 106.916 27.9248 105.758 27.9684L41.5617 30.4964L23.3491 31.2083V34.7677L80.6857 22.4912L138.066 10.2438C148.8 7.9483 159.544 5.71092 170.278 3.27015C171.392 3.02317 171.148 -0.0713833 170.016 0.0012588C148.017 1.58485 126.009 2.65997 104.009 3.96751C82.009 5.27507 60.0009 6.58263 38.001 7.96283C25.5517 8.76674 13.1023 9.58513 0.65294 10.4182C-0.217647 10.4182 -0.217647 12.6991 0.65294 12.6555L0.63551 12.7136Z" fill="white" fill-opacity="0.5"/>
</svg>
