<svg width="54" height="65" viewBox="0 0 54 65" fill="none" xmlns="http://www.w3.org/2000/svg">
<g clip-path="url(#clip0_2079_163)">
<g filter="url(#filter0_i_2079_163)">
<path d="M49.1529 31.1157C52.0664 34.8284 53.685 39.1599 53.4693 43.5797C53.2534 49.3255 50.232 55.0713 45.1603 58.9609C40.0886 62.8505 33.1825 64.972 26.3843 64.7951C19.5861 64.972 12.68 62.762 7.60826 58.8724C4.26311 56.309 1.78123 52.9497 0.486328 49.237L14.7302 46.1432C15.2698 47.8228 16.2409 49.3255 17.7516 50.5632C20.0177 52.4193 23.147 53.4801 26.3843 53.4801C29.6215 53.4801 32.7509 52.4193 35.017 50.5632C37.283 48.7067 38.5779 46.1432 38.5779 43.5797C38.5779 40.9278 37.3909 38.2759 35.017 36.3312C32.6429 34.3864 29.6215 33.5909 26.3843 33.5909C24.2261 33.5909 22.1759 34.1213 20.3414 35.0052L13.759 25.5467L32.535 11.3148H3.50776V0H52.0664V11.7568L36.3119 23.7788C41.8152 25.1048 46.0236 27.7567 49.1529 31.1157Z" fill="url(#paint0_linear_2079_163)"/>
</g>
</g>
<defs>
<filter id="filter0_i_2079_163" x="0.486328" y="0" width="53.002" height="68.8054" filterUnits="userSpaceOnUse" color-interpolation-filters="sRGB">
<feFlood flood-opacity="0" result="BackgroundImageFix"/>
<feBlend mode="normal" in="SourceGraphic" in2="BackgroundImageFix" result="shape"/>
<feColorMatrix in="SourceAlpha" type="matrix" values="0 0 0 0 0 0 0 0 0 0 0 0 0 0 0 0 0 0 127 0" result="hardAlpha"/>
<feOffset dy="4"/>
<feGaussianBlur stdDeviation="2"/>
<feComposite in2="hardAlpha" operator="arithmetic" k2="-1" k3="1"/>
<feColorMatrix type="matrix" values="0 0 0 0 0 0 0 0 0 0 0 0 0 0 0 0 0 0 0.75 0"/>
<feBlend mode="normal" in2="shape" result="effect1_innerShadow_2079_163"/>
</filter>
<linearGradient id="paint0_linear_2079_163" x1="26.4349" y1="-29.3403" x2="26.4349" y2="74.4932" gradientUnits="userSpaceOnUse">
<stop offset="0.79" stop-color="#3C3C3C"/>
<stop offset="1" stop-color="#3C3C3C" stop-opacity="0"/>
</linearGradient>
<clipPath id="clip0_2079_163">
<rect width="54" height="65" fill="white"/>
</clipPath>
</defs>
</svg>
